<svg xmlns="http://www.w3.org/2000/svg" xmlns:xlink="http://www.w3.org/1999/xlink" viewBox="0,0,256,256" width="200px" height="200px" fill-rule="nonzero"><g fill="none" fill-rule="nonzero" stroke="none" stroke-width="1" stroke-linecap="butt" stroke-linejoin="miter" stroke-miterlimit="10" stroke-dasharray="" stroke-dashoffset="0" font-family="none" font-weight="none" font-size="none" text-anchor="none" style="mix-blend-mode: normal"><g transform="scale(2.56,2.56)"><path d="M21.5,92c-6.341,0 -11.5,-5.159 -11.5,-11.5v-59c0,-6.341 5.159,-11.5 11.5,-11.5h59c6.341,0 11.5,5.159 11.5,11.5v59c0,6.341 -5.159,11.5 -11.5,11.5z" fill="#000000" opacity="0.35"></path><path d="M19.5,90c-6.341,0 -11.5,-5.159 -11.5,-11.5v-59c0,-6.341 5.159,-11.5 11.5,-11.5h59c6.341,0 11.5,5.159 11.5,11.5v59c0,6.341 -5.159,11.5 -11.5,11.5z" fill="#f2f2f2"></path><path d="M78.5,83.5h-59c-2.761,0 -5,-2.239 -5,-5v-59c0,-2.761 2.239,-5 5,-5h59c2.761,0 5,2.239 5,5v59c0,2.761 -2.239,5 -5,5z" fill="#38bd0e"></path><path d="M82,16h-6.41968l-14.96228,20.51025c-0.02405,0.02875 -0.05054,0.0553 -0.07935,0.07941c-0.27441,0.23059 -0.68384,0.19507 -0.91455,-0.07941l-6.08508,-6.73425c-0.04126,-0.05743 -0.09155,-0.10779 -0.14905,-0.14899c-0.29126,-0.20898 -0.69678,-0.14227 -0.90576,0.14899l-3.59021,4.60443c-0.18982,0.23712 -0.18982,0.57422 0,0.8114l10.87219,11.21698c0.01147,0.01251 0.02356,0.02454 0.03613,0.03613c0.26318,0.24329 0.67383,0.22711 0.91724,-0.03613l21.2804,-23.89484z" fill="#f2f2f2"></path><path d="M78.5,85h-59c-3.584,0 -6.5,-2.916 -6.5,-6.5v-59c0,-3.584 2.916,-6.5 6.5,-6.5h59c3.584,0 6.5,2.916 6.5,6.5v59c0,3.584 -2.916,6.5 -6.5,6.5zM19.5,16c-1.93,0 -3.5,1.57 -3.5,3.5v59c0,1.93 1.57,3.5 3.5,3.5h59c1.93,0 3.5,-1.57 3.5,-3.5v-59c0,-1.93 -1.57,-3.5 -3.5,-3.5z" fill="#40396e"></path><path d="M34.96809,69.97527c-3.34236,0.01021 -6.56406,-1.24786 -9.01522,-3.5203c-0.00478,-0.00284 -0.00943,-0.00568 -0.01434,-0.00846c-0.31842,-0.18336 -0.72521,-0.07389 -0.90864,0.2446l-2.68316,3.75638c-0.22167,0.2515 -0.22167,0.62858 0,0.88009c3.39157,2.98014 7.8118,4.5202 12.32089,4.29298h-0.02145c8.13526,0 12.06344,-4.16418 12.06344,-9.61635c0,-11.29057 -17.30084,-8.0923 -17.30084,-12.87901c0,-1.80301 1.54549,-3.02652 4.29298,-3.02652c2.99099,-0.02803 5.90099,0.97226 8.24247,2.8334c0.01137,0.00956 0.02287,0.01879 0.03462,0.02764c0.29453,0.21993 0.71151,0.15947 0.93137,-0.13499l2.64014,-3.67054c0.24802,-0.25764 0.24802,-0.66533 0,-0.92298c-3.17572,-2.58104 -7.17947,-3.92327 -11.26912,-3.77788c-7.12638,0 -11.41936,4.16425 -11.41936,9.16558c0,11.33352 17.34373,7.68449 17.34373,13.0078c0,1.71723 -1.71717,3.34856 -5.23753,3.34856z" fill="#f2f2f2"></path><path d="M55.30293,65.76814h15.88414c0.01447,0.00051 0.0292,0.00051 0.04366,0c0.31985,-0.01208 0.56942,-0.28116 0.55727,-0.60101l-0.02144,-0.6869c0,-7.31956 -4.52899,-12.32089 -11.20466,-12.32089c-0.17387,-0.00303 -0.34775,-0.00206 -0.5215,0.00284c-6.2924,0.17878 -11.24845,5.42465 -11.06967,11.71705c-0.01421,0.35931 -0.01124,0.71914 0.00878,1.07818c0.34865,6.24958 5.69754,11.03331 11.94718,10.68459c3.15634,0.07964 6.25042,-0.88635 8.80066,-2.74749c0.24001,-0.19273 0.29556,-0.53558 0.12891,-0.79419l-1.93198,-2.81195c-0.01279,-0.01983 -0.02687,-0.03889 -0.04211,-0.05697c-0.20565,-0.24531 -0.57123,-0.27747 -0.81641,-0.07182c-1.61189,1.13367 -3.52489,1.76134 -5.49498,1.80307c-3.1119,0.25713 -5.90564,-1.90331 -6.43954,-4.97989c-0.00013,-0.00077 -0.00026,-0.00155 -0.00026,-0.00232c-0.01111,-0.10612 0.06588,-0.20119 0.17194,-0.2123zM55.08836,61.56099c0.31158,-2.76493 2.69233,-4.82829 5.47354,-4.74375c2.82771,-0.18472 5.27771,1.93987 5.49498,4.76519c0.00103,0.00756 0.00142,0.01518 0.00129,0.0228c-0.00065,0.09488 -0.07816,0.17116 -0.17297,0.17039h-10.6253c-0.01627,0.00052 -0.03255,-0.00129 -0.04831,-0.00536c-0.09197,-0.02377 -0.147,-0.11749 -0.12323,-0.20927z" fill="#f2f2f2"></path></g></g></svg>